<svg xmlns="http://www.w3.org/2000/svg" role="img" viewBox="-3.20 -3.20 166.27 44.15"><title>99designs (adopter) logo</title><path d="M159.4159 14.32615c-.27486-3.74508-3.19533-6.01274-7.31835-6.01274-3.84815 0-7.38708 2.43946-7.38708 6.21889 0 2.2333 1.27127 4.12302 6.08145 5.60043 2.85176.89332 3.50457 1.44306 3.50457 2.50817 0 .89332-.9964 1.47742-1.9928 1.47742-1.13382 0-1.99278-.54974-2.16458-1.75228h-5.66915c.4123 3.8825 3.4702 6.32196 7.76502 6.32196 4.32917 0 7.76502-2.50817 7.76502-6.49376 0-2.78304-1.47742-4.60404-6.01274-5.80658-2.6456-.68717-3.57328-1.20255-3.57328-2.2333 0-.72153.68717-1.27127 1.6492-1.27127.92769 0 1.71793.34359 1.7523 1.44306h5.60043zm-33.7796 13.74028h5.70987V17.38426c0-2.50105 1.07894-3.751 3.23682-3.751 1.0397 0 1.7945.31812 2.26332.95664.46993.63739.70434 1.64706.70434 3.0245v10.45203h5.71099v-11.9829c0-.766-.03253-1.4361-.09533-2.01144-.06393-.57308-.166-1.08525-.30619-1.53086-.13907-.44673-.32862-.85511-.56975-1.22514-.24114-.37002-.55181-.7344-.93202-1.0909-.609-.61256-1.35709-1.09088-2.24649-1.43609-.88715-.34408-1.83936-.51668-2.85437-.51668-1.21802 0-2.22743.21096-3.0271.63062-.79855.42192-1.52869 1.10443-2.18929 2.0498v-2.0295h-5.4048v19.1431zm-12.23479-3.75565c-2.31516-.36211-2.26417-1.28806-1.70339-1.73818 5.26237 2.0058 11.6878-.54037 11.72817-6.64464-.01297-2.2366-.80738-3.66317-1.4191-4.32133.48194-.92436 1.0342-1.38782 2.219-1.67384l-2.4073-4.16355c-2.16987.18695-3.59823 1.52509-4.24984 2.90115-1.28137-.52352-3.9082-.58512-6.00215.16395-1.00604.35761-1.93581.8709-2.73885 1.58275-.7694.67575-1.3728 1.48687-1.79899 2.42208-.44862.97357-.64265 2.01595-.64938 3.08654.01234 1.45527.46769 3.18807 1.31671 4.36921-2.2936 2.27204-2.16798 5.64173.20973 7.77276-.25123.19065-.48451.40612-.69873.63626-2.14667 2.34423-1.13165 5.60225 1.33466 7.3136 3.11794 2.23368 8.65285 2.36567 12.05679.854 5.9824-2.4345 6.2-11.34778-.74808-12.51538-1.93358-.3249-4.13409.31674-6.44925-.04538zm5.5363 7.69855c-.65275.89009-1.89096 1.20145-2.92616 1.25109-1.2169.05866-2.87344-.22111-3.70564-1.22176-.8008-.96341-.6135-2.30362.46881-2.96357.30731-.19065.63593-.30572.99259-.35762h2.83755c1.23932 0 2.8095.35085 2.79942 1.8896-.00225.4851-.17946 1.0108-.46657 1.40226zm-3.97487-19.4103c1.73503 0 3.14144 1.41465 3.14144 3.15859 0 1.74394-1.40641 3.15858-3.14144 3.15858-1.7338 0-3.14022-1.41464-3.14022-3.15858 0-1.74518 1.40642-3.15858 3.14022-3.15858zM104.0573 28.0669h-5.70875V8.92379h5.70875v19.1431zm-2.85494-21.15103c1.88871 0 3.41964-1.54102 3.41964-3.43965 0-1.89862-1.53093-3.43964-3.41964-3.43964-1.8887 0-3.41964 1.54102-3.41964 3.43964 0 1.89863 1.53093 3.43965 3.41964 3.43965zm-4.96355 7.41029c-.27487-3.74508-3.19534-6.01274-7.31836-6.01274-3.84815 0-7.38708 2.43946-7.38708 6.21889 0 2.2333 1.27127 4.12302 6.08146 5.60043 2.85175.89332 3.50456 1.44306 3.50456 2.50817 0 .89332-.9964 1.47742-1.99279 1.47742-1.13383 0-1.9928-.54974-2.16458-1.75228h-5.66916c.4123 3.8825 3.47021 6.32196 7.76502 6.32196 4.32917 0 7.76502-2.50817 7.76502-6.49376 0-2.78304-1.47741-4.60404-6.01273-5.80658-2.6456-.68717-3.57329-1.20255-3.57329-2.2333 0-.72153.68717-1.27127 1.64921-1.27127.92768 0 1.71793.34359 1.75228 1.44306h5.60044zm-16.48215.26296c-.50806-1.27478-1.21128-2.3792-2.11414-3.31104-.8995-.93182-1.96497-1.6651-3.19645-2.20209-1.23035-.53473-2.55716-.80322-3.97818-.80322-1.37055 0-2.6581.2685-3.86378.80322-1.20456.53699-2.25097 1.2635-3.13925 2.18292-.8894.91829-1.59262 2.00354-2.11302 3.25463-.5204 1.25108-.77949 2.59016-.77949 4.02062 0 1.4282.25908 2.76164.77949 3.99919.5204 1.2398 1.23147 2.31716 2.13096 3.23658.90174.91829 1.96162 1.64029 3.17851 2.1626 1.21802.52345 2.52576.78518 3.92098.78518 2.03115 0 3.85705-.58775 5.48107-1.76213 1.55449-1.12248 2.77138-2.65334 3.65068-4.59258h-5.93418c-.609.58663-1.16642.98147-1.67449 1.18566-.50694.20532-1.11595.30685-1.82702.30685-1.14175 0-2.09508-.32603-2.8555-.97696-.76154-.65092-1.20568-1.5128-1.3313-2.5834h14.27412c.30058-1.93247.12225-3.8672-.609-5.70603zm-13.5137 1.8772c.2288-1.07285.7178-1.89638 1.46589-2.4706.74808-.57308 1.68122-.86075 2.7983-.86075 1.11595 0 2.06143.30685 2.8353.91942.77388.61144 1.26176 1.4158 1.46476 2.41192h-8.56424zM19.37747 5.94782c.13026-.2842.27459-.5649.43322-.84125 2.80278-4.88364 9.01175-6.55664 13.86699-3.73634 4.85524 2.81917 6.51851 9.06445 3.71573 13.94809l-7.32604 12.76243h-6.61048l4.41558-7.69378c-1.48494-.10605-2.9699-.53248-4.34605-1.33119-1.8935-1.0999-3.3017-2.72053-4.14881-4.5782a10.36102 10.36102 0 0 1-.4329.84074l-7.32603 12.76243H5.00818l4.4156-7.69378c-1.48496-.10605-2.9699-.53248-4.34606-1.33119C.22248 16.2355-1.44192 9.99134 1.36199 5.10658 4.16477.22294 10.37373-1.45006 15.22897 1.37024c1.8935 1.09944 3.30151 2.71997 4.14849 4.5776zM53.57132.58416v9.90152c-.78846-.76938-1.6274-1.33795-2.51791-1.71023-.89052-.37115-1.9347-.55616-3.13028-.55616-1.34812 0-2.6009.2572-3.75835.76825-1.15858.51216-2.15564 1.22175-2.99682 2.13102-.83893.907-1.49953 1.98888-1.98404 3.24335-.4834 1.25334-.72453 2.60934-.72453 4.06913 0 1.50943.23553 2.89137.70546 4.14584.47106 1.25222 1.13278 2.33296 1.98517 3.24223.85239.90926 1.86403 1.61772 3.03382 2.13101 1.17091.51217 2.4551.76713 3.85369.76713 1.32344 0 2.43603-.20983 3.34001-.63288.90286-.42191 1.73618-1.10669 2.49996-2.0543v2.03512h5.41939V.58416h-5.72557zm-1.06885 21.37677c-.9152.92168-2.0861 1.38308-3.5105 1.38308-.68639 0-1.32904-.12184-1.92684-.36551-.59779-.24255-1.10586-.58099-1.52644-1.01757-.41947-.43433-.75033-.95213-.99258-1.55342-.24226-.60242-.36227-1.26124-.36227-1.97647 0-.69154.12001-1.33795.36227-1.93924.24226-.60129.57872-1.11233 1.01165-1.53537.4318-.42192.94772-.75472 1.5455-.99726.5978-.24368 1.2528-.36551 1.96498-.36551.6864 0 1.32345.12183 1.9089.3655.58434.24255 1.09353.58212 1.52533 1.01757.43292.4332.7705.93973 1.01165 1.51507.24225.57647.36338 1.20934.36338 1.89976 0 1.45978-.45872 2.64995-1.37503 3.56937zM24.58629 7.88063c1.28082-2.2303 4.11613-2.99517 6.33458-1.70685 2.21733 1.28718 2.97662 4.1402 1.69692 6.3705-1.28082 2.23142-4.11613 2.99516-6.33458 1.70797-2.21733-1.28831-2.97775-4.14133-1.69692-6.37162zm-18.4487 0c1.28083-2.2303 4.11614-2.99517 6.33459-1.70685 2.21732 1.28718 2.97662 4.1402 1.69692 6.3705-1.28082 2.23142-4.11613 2.99516-6.33458 1.70797-2.21733-1.28831-2.97775-4.14133-1.69692-6.37162z" fill="#555" fill-rule="evenodd"/></svg>