<svg xmlns="http://www.w3.org/2000/svg" role="img" viewBox="-3.22 -3.22 167.18 30.05"><title>Alembic (adopter) logo</title><g fill="none"><path fill="#EF3E24" d="M23.24776 11.85672c0-6.41194-5.19403-11.60597-11.60597-11.60597C5.22985.25075.03582 5.4806.03582 11.85672c0 6.41194 5.19403 11.60597 11.60597 11.60597l7.09254-.07165.03582-12h-.03582C18.55523 7.73731 15.51045 4.8 11.78507 4.8c-3.83283 0-6.94925 3.0806-6.94925 6.91343C4.8 15.403 7.7015 18.44776 11.3194 18.69851h3.47463c0-.75224.03582-1.64776-.8597-2.07761-.53732-.25075-1.61194-.14329-2.75821-.21493-2.36418-.21493-4.15522-2.36418-4.04776-4.83582.10746-2.43582 2.07761-4.40597 4.51343-4.51343 2.68657-.10747 4.87164 2.04179 4.87164 4.69253v9.38508l-4.87164.03582c-5.1582 0-9.34925-4.22687-9.34925-9.38508 0-5.12238 4.19104-9.31343 9.34925-9.31343 5.15821 0 9.38508 4.19105 9.38508 9.34926v9.31343c-.07165 1.75522.32238 2.32836 2.25671 2.25671l-.03582-11.53432z"/><path d="M40.62113 1.18209c-.14328-.42985-.60895-.71642-1.11044-.71642-.46568 0-.93135.28657-1.11045.71642l-7.84478 20.9194c-.10746.28657-.10746.60896.03582.89552.10747.28657.35821.5015.60896.60896l.07164.03582H31.6301c.46567 0 .89552-.28657 1.07463-.75224l1.8985-5.08656h9.81493l1.8985 5.08656c.17911.42985.60896.75224 1.07463.75224.07165 0 .14329 0 .1791-.03582h.17911l.07164-.03582c.57314-.25075.8597-.93134.60896-1.50448L40.62113 1.1821zm2.93732 14.32836h-8.09552l4.04776-10.74627 4.04776 10.74627zm21.9582 5.8388H55.09279V1.50448c0-.60896-.53732-1.14627-1.14627-1.14627-.60896 0-1.14627.5015-1.14627 1.14627v21.02686c0 .60896.5015 1.14627 1.14627 1.14627h11.60597c.64477 0 1.14627-.5015 1.14627-1.14627-.03582-.6806-.53732-1.18209-1.1821-1.18209zm18.1612-18.6985c.64478 0 1.14627-.5015 1.14627-1.14627 0-.64478-.5015-1.14627-1.14627-1.14627H72.07188c-.60895 0-1.14627.5015-1.14627 1.14627v21.02686c0 .60896.42985 1.07463 1.07463 1.14627h11.67761c.64478 0 1.14627-.5015 1.14627-1.14627 0-.6806-.5015-1.14627-1.14627-1.14627H73.25397V13.1821h9.0985c.60896 0 1.14628-.5015 1.14628-1.14627 0-.64478-.5015-1.14627-1.14627-1.14627h-9.09851v-8.2388h10.42388zm25.86269-1.64776c-.07164-.14329-.1791-.21493-.28657-.3224l-.07164-.03581c-.53732-.35821-1.25373-.21493-1.57612.28656L99.9047 11.6418 92.16742.93134C91.80918.42985 91.1286.3224 90.59127.64478l-.03582.03582-.10746.10746c-.25075.21493-.39403.5015-.39403.8597v20.88358c0 .60896.53731 1.14627 1.14627 1.14627.60895 0 1.14627-.5015 1.14627-1.14627V5.08657l6.55522 9.06268c.21493.35821.53731.53732.96717.53732h.07164c.39403 0 .75224-.1791.93134-.5015l6.59105-9.13432v17.44477c0 .64478.50149 1.14627 1.14626 1.14627.60896 0 1.14627-.5015 1.14627-1.14627V1.61194c0-.1791-.07164-.3582-.1791-.57313l-.03582-.03582zm15.97612 9.63582c1.18209-1.14627 1.82686-2.65075 1.82686-4.2627 0-3.29551-2.68656-5.98208-5.98209-5.98208h-5.01492c-.60896 0-1.14627.5015-1.14627 1.14627v21.02686c0 .60896.5015 1.14627 1.14627 1.14627h6.44776c3.7612 0 6.80597-3.04477 6.80597-6.80597 0-2.7582-1.61194-5.19403-4.08358-6.26865zm-7.98806-.64478V2.65075h3.86865c2.0418 0 3.65374 1.64776 3.65374 3.68955 0 2.00597-1.64777 3.65373-3.65374 3.65373h-3.86865zm9.7791 6.8418c-.03582 2.54327-2.00597 4.51342-4.51343 4.51342h-5.26567V12.3224h5.26567c2.47164 0 4.47761 2.04179 4.51343 4.51343zM135.40322.3582c-.60895 0-1.14627.5015-1.14627 1.14627v21.02686c0 .60896.5015 1.14627 1.14627 1.14627.64478 0 1.14627-.5015 1.14627-1.14627V1.50448C136.58531.8597 136.048.3582 135.40322.3582zm24.53732 18.66269c-.3224-.07165-.6806 0-.96717.1791l-.03582.03582c-1.61194 1.3612-3.7612 2.11343-6.0179 2.11343-5.40896 0-9.77911-4.22686-9.77911-9.45671 0-5.26567 4.40597-9.56418 9.7791-9.56418 2.2209 0 4.33433.71642 6.08955 2.11343.25075.1791.57314.28657.8597.21493.28657-.03582.53732-.21493.71642-.42985.1791-.21493.28657-.46568.25075-.75224 0-.35821-.1791-.64478-.46567-.89553-2.14926-1.64776-4.8-2.54328-7.52239-2.54328-6.77015.03582-12.10746 5.22985-12.10746 11.85672 0 6.48358 5.40895 11.74925 12.10746 11.74925 2.72239 0 5.40895-.89552 7.48657-2.50746.25074-.1791.42985-.5015.46567-.8597 0-.28657-.07164-.57314-.28657-.78806-.07164-.21493-.28657-.39403-.57313-.46567z" fill="#92C4E9"/></g></svg>