<svg xmlns="http://www.w3.org/2000/svg" role="img" viewBox="-0.65 -10.15 839.80 344.30"><title>Apollo CLI logo</title><defs><style>.cls-1{fill:#333}</style></defs><path d="M146.67661 73.32378h-24.311l-35.101 91.097h21.989l5.737-15.432h33.166l-6.004-17.074h-21.839l14.206-39.198 25.27 71.704h21.988zm369.302 91.097v-91.097h19.528v74.024h38.517v17.072h-58.045zm112.564 0v-91.097h19.531v74.024h38.516v17.072h-58.047zm-220.731-74.772a29.292 29.292 0 1 1-29.292 29.292 29.32559 29.32559 0 0 1 29.292-29.292m0-17.825a47.1185 47.1185 0 1 0 47.12 47.117 47.11851 47.11851 0 0 0-47.12002-47.11701zm368.563 17.825a29.292 29.292 0 1 1-29.291 29.292 29.326 29.326 0 0 1 29.291-29.292m0-17.825a47.1185 47.1185 0 1 0 47.121 47.117 47.12 47.12 0 0 0-47.12104-47.11701zm-495.298 1.5h-42.478v91.099h19.396v-31.353h23.082c16.189 0 29.314-13.685 29.314-29.874-.00005-16.19101-13.12505-29.87201-29.31404-29.87201zm0 41.918h-23.082v-24.089h23.082c6.336 0 11.486 5.711 11.486 12.045-.00005 6.33499-5.15004 12.04399-11.48604 12.04399z" class="cls-1"/><path d="M221.85159 192.06778a5.002 5.002 0 0 0-4.088 2.118s-4.375 4.991-6.732 7.354a108.71841 108.71841 0 1 1-8.492-161.274 12.249 12.249 0 1 0 6.856-7.341 118.66838 118.66838 0 1 0 16.007 167.705 5.017 5.017 0 0 0-3.551-8.562zM336.7126 242.356q9.92211-10.14111 25.24658-10.14062 20.50488 0 29.98633 13.59472a29.63032 29.63032 0 0 1 5.62207 15.32227h-17.16065a23.39045 23.39045 0 0 0-4.20361-8.915q-4.585-5.34814-13.59033-5.34863a16.747 16.747 0 0 0-14.46582 7.5498q-5.294 7.55127-5.29395 21.36817 0 13.81786 5.58643 20.69824a17.50686 17.50686 0 0 0 14.19775 6.88183q8.82861 0 13.4624-5.90625 2.56128-3.17577 4.251-9.52832h17.04981q-2.20533 13.4297-11.27246 21.8418-9.06815 8.41399-23.23342 8.41299-17.52832 0-27.561-11.36622-10.032-11.42138-10.03174-31.31347-.00004-21.50681 11.41061-33.15131zm83.12012-8.58109h17.16064v67.3623h41.00879v14.76563h-58.16943zm93.91845 82.12793h-17.0498v-82.12793h17.0498z" class="cls-1"/></svg>