<svg xmlns="http://www.w3.org/2000/svg" role="img" viewBox="-5.11 -3.61 759.72 280.72"><title>Artsy (adopter) logo</title><path d="M26.95876 28.07418h696.08512v217.627H428.42274v-35.864h-16.51841v35.864H26.95876zM9.8631 262.778h730.2738V11H9.8631z"/><path d="M157.97713 92.10469h-18.71864l-32.54685 83.72107h18.70924l8.54448-23.21707h29.42037l8.42632 23.21707h18.71864zm-18.975 45.16959l9.609-26.23617 9.50967 26.23617zM320.507 92.105v16.626h29.309v67.095h17.629v-67.095h29.426V92.105h-76.364zm299.968 0l-21.187 35.7-21.064-35.7h-20.488l32.805 52.987v30.734h17.622v-30.734l32.8-52.987h-20.488zm-97.83351 39.63181c-5.45291-3.98025-12.91538-5.80729-19.50128-7.42355-1.36925-.337-2.70629-.65779-4.00307-1.00009l-.81083-.20807c-5.36429-1.35047-12.71939-3.20033-12.71939-9.60633 0-6.85438 7.986-8.67871 12.70059-8.67871 5.34549 0 12.06027 1.6015 13.7074 9.24252l.047.25639h16.607l-.01074-.33157c-.55842-15.4512-11.39709-24.31382-29.72912-24.31382-13.655 0-29.59622 6.37379-29.59622 24.32456 0 18.68641 16.63922 22.68279 31.3105 26.21468 1.34778.32888 2.66873.64435 3.96145.9719 7.47726 1.95322 11.27362 5.422 11.27362 10.31646 0 10.52453-13.80138 11.05614-16.57347 11.05614-9.699 0-14.96526-3.61511-16.5842-11.37294l-.047-.25238h-16.85936l.0161.3262c.12352 6.63959.93029 10.68428 5.20456 15.70357 8.10148 9.44523 20.94841 10.85612 27.89137 10.85612 16.007 0 33.23014-8.31357 33.23014-26.57177a24.34261 24.34261 0 0 0-9.515-19.50931m-241.54349 8.48004c6.40064-4.66891 10.37418-12.93283 10.37418-21.56053a26.28037 26.28037 0 0 0-12.5395-22.6009c-6.555-3.95207-13.18118-3.95207-19.59255-3.95207h-37.76079v83.721h17.744v-41.38661l32.93214 41.38666h21.49339l-25.07362-30.71983c4.49042-.77321 8.225-1.823 12.42275-4.88772m-41.7746-9.56606v-22.7687l19.93889-.00536c3.96415 0 7.47189.16645 10.30838 2.21632a11.2472 11.2472 0 0 1 4.27023 9.17274c0 7.55377-5.39248 11.38367-16.0298 11.38367h-18.4877z"/></svg>