<svg xmlns="http://www.w3.org/2000/svg" role="img" viewBox="1.58 -1.42 102.72 119.47"><title>AWS AppSync logo</title><defs><linearGradient id="a" x1="3.876" x2="102.134" y1="46.063" y2="46.063" gradientUnits="userSpaceOnUse"><stop offset="0" stop-color="#b0084d"/><stop offset="1" stop-color="#ff4f8b"/></linearGradient></defs><path fill="url(#a)" d="M53.224 91.213a44.876 44.876 0 0 1-21.6629-5.58466l1.98743-3.478A41.11975 41.11975 0 0 0 88.302 24.51513l-1.9874 9.93711-3.97484-.7751 2.88175-14.46842a1.98743 1.98743 0 0 1 2.32528-1.57007l14.58768 2.88177-.7751 3.97484-9.73837-1.98742A45.15422 45.15422 0 0 1 53.224 91.213zM18.782 73.88268a2.12589 2.12589 0 0 1-.49685 0l-14.4088-3.6171.97384-3.85558 9.26138 2.32528A45.0946 45.0946 0 0 1 74.70805 6.44947l-1.98742 3.478a41.11975 41.11975 0 0 0-54.833 57.31723l2.58365-10.275 3.8556.954-3.61707 14.4088a1.98742 1.98742 0 0 1-1.92781 1.55018zm50.16253-8.56578a7.9497 7.9497 0 0 1-7.69132-5.96226H44.857a7.94969 7.94969 0 1 1-7.7112-9.93711 8.34687 8.34687 0 0 1 2.14641.27824l8.30742-14.38894A7.94969 7.94969 0 1 1 58.838 34.9993q-.14952.15795-.30753.30753l8.30742 14.38893a8.28757 8.28757 0 0 1 2.10667-.27824 7.94969 7.94969 0 1 1 0 15.89938zm0-11.92453a3.97485 3.97485 0 1 0 3.97485 3.97484 3.97484 3.97484 0 0 0-3.97485-3.97484zm-31.79874 0a3.97485 3.97485 0 1 0 3.97484 3.97484 3.97485 3.97485 0 0 0-3.97484-3.97484zm7.7112 1.98742h16.39622a7.94972 7.94972 0 0 1 2.14642-3.71647l-8.34717-14.44856a7.94969 7.94969 0 0 1-3.97484 0l-8.3273 14.46843a7.9498 7.9498 0 0 1 2.10668 3.71647zm8.18817-29.81132A3.97485 3.97485 0 1 0 57.02 29.54331a3.97484 3.97484 0 0 0-3.97484-3.97484z" data-name="Icon Test"/><path d="M13.9036 111.50813l-.62744-2.68945H9.94071l-.64551 2.68945H7.14286l3.15625-12.69629h2.74365l3.10254 12.69629zm-2.24121-10.66992h-.07178l-1.38085 6.29395h2.79736zm15.65479 10.66992h-2.47461l-1.75733-9.54h-.03613l-1.75732 9.54h-2.47461l-2.4209-12.69629h2.1875l1.63183 9.86328h.07178l1.70361-9.86328h2.25976l1.75732 9.86328h.03614l1.63183-9.86328h2.08008zm8.93066-10.23926a2.18841 2.18841 0 0 0-1.75732-.84277 1.788 1.788 0 0 0-.5918.09863 1.4522 1.4522 0 0 0-.52.31348 1.49134 1.49134 0 0 0-.36768.55566 2.20124 2.20124 0 0 0-.13427.80665 1.59865 1.59865 0 0 0 .48388 1.24707 5.67007 5.67007 0 0 0 1.27344.834 10.89571 10.89571 0 0 1 .9502.53809 4.31019 4.31019 0 0 1 .8789.73437 3.43223 3.43223 0 0 1 .89649 2.4209 4.301 4.301 0 0 1-.2959 1.65039 3.65263 3.65263 0 0 1-.78906 1.21 3.22377 3.22377 0 0 1-1.15674.74414 3.90681 3.90681 0 0 1-1.39844.252 4.6131 4.6131 0 0 1-1.95459-.41308 4.10062 4.10062 0 0 1-1.43457-1.04l1.16553-1.57813a2.96932 2.96932 0 0 0 .99512.78907 2.6696 2.6696 0 0 0 1.19238.28711 1.50164 1.50164 0 0 0 1.12988-.46582 1.8133 1.8133 0 0 0 .44824-1.30957 1.67576 1.67576 0 0 0-.53759-1.30957 6.16361 6.16361 0 0 0-1.36329-.89649 8.08163 8.08163 0 0 1-.977-.55566 3.7145 3.7145 0 0 1-.80713-.72657 3.29939 3.29939 0 0 1-.55615-.98632 3.95812 3.95812 0 0 1-.206-1.35352 4.15708 4.15708 0 0 1 .314-1.69434 3.45091 3.45091 0 0 1 .82471-1.1748 3.31911 3.31911 0 0 1 1.15674-.69043 3.968 3.968 0 0 1 1.30908-.22461 4.51592 4.51592 0 0 1 1.73047.31445 3.3161 3.3161 0 0 1 1.28222.92286zm11.74658 10.23926l-.6289-2.68945h-3.335l-.64551 2.68945H41.2327l3.1563-12.69629h2.74414l3.10157 12.69629zm-2.24218-10.66992H45.68l-1.38037 6.29395h2.79834zm12.73095 6.0791a9.42156 9.42156 0 0 1-.1875 1.94531 5.41358 5.41358 0 0 1-.56543 1.55176 2.94837 2.94837 0 0 1-.93261 1.03125 2.2521 2.2521 0 0 1-1.27295.36719 1.92377 1.92377 0 0 1-1.29981-.43945 2.28352 2.28352 0 0 1-.708-1.06641h-.03613v5.50488h-1.99024v-13.44922h1.9541v1.291h.03613A2.8649 2.8649 0 0 1 54.18 102.515a1.84161 1.84161 0 0 1 1.34473-.457 2.2126 2.2126 0 0 1 1.26416.36718 3.01646 3.01646 0 0 1 .92382 1.02247 5.43091 5.43091 0 0 1 .57325 1.542 8.86321 8.86321 0 0 1 .19723 1.92766zm-2.02636 0a7.80906 7.80906 0 0 0-.08985-1.21972 4.09952 4.09952 0 0 0-.26806-.98633 1.75672 1.75672 0 0 0-.46583-.6543 1.02553 1.02553 0 0 0-.68164-.24219 1.00171 1.00171 0 0 0-.66406.24219 1.82917 1.82917 0 0 0-.47461.6543 4.00386 4.00386 0 0 0-.28711.98633 7.59129 7.59129 0 0 0 0 2.43945 4.1444 4.1444 0 0 0 .28711.99512 1.80687 1.80687 0 0 0 .47461.66308.99671.99671 0 0 0 .66406.24219 1.02052 1.02052 0 0 0 .68164-.24219 1.73764 1.73764 0 0 0 .46583-.66308 4.2423 4.2423 0 0 0 .26806-.99512 7.8091 7.8091 0 0 0 .08985-1.21973zm10.92089 0a9.42156 9.42156 0 0 1-.1875 1.94531 5.41358 5.41358 0 0 1-.56543 1.55176 2.94837 2.94837 0 0 1-.93261 1.03125 2.25367 2.25367 0 0 1-1.27344.36719 1.92379 1.92379 0 0 1-1.29981-.43945 2.2835 2.2835 0 0 1-.708-1.06641h-.03614v5.50488h-1.99023v-13.44922h1.9541v1.291h.03613a2.86512 2.86512 0 0 1 .69921-1.13862 1.84161 1.84161 0 0 1 1.34473-.457 2.21416 2.21416 0 0 1 1.26465.36718 3.01649 3.01649 0 0 1 .92383 1.02247 5.43121 5.43121 0 0 1 .57324 1.542 8.86321 8.86321 0 0 1 .19727 1.92766zm-2.02636 0a7.80906 7.80906 0 0 0-.08985-1.21972 4.07618 4.07618 0 0 0-.26855-.98633 1.75659 1.75659 0 0 0-.46582-.6543 1.02556 1.02556 0 0 0-.68164-.24219 1.00171 1.00171 0 0 0-.66407.24219 1.82915 1.82915 0 0 0-.4746.6543 4.00342 4.00342 0 0 0-.28711.98633 7.59053 7.59053 0 0 0 0 2.43945 4.14394 4.14394 0 0 0 .28711.99512 1.80685 1.80685 0 0 0 .4746.66308.99672.99672 0 0 0 .66407.24219 1.02056 1.02056 0 0 0 .68164-.24219 1.73751 1.73751 0 0 0 .46582-.66308 4.21778 4.21778 0 0 0 .26855-.99512 7.8091 7.8091 0 0 0 .08985-1.21973zm8.98437-5.64844a2.1868 2.1868 0 0 0-1.75683-.84277 1.7838 1.7838 0 0 0-.5918.09863 1.45413 1.45413 0 0 0-.52051.31348 1.47876 1.47876 0 0 0-.36719.55566 2.19064 2.19064 0 0 0-.13476.80665 1.59724 1.59724 0 0 0 .48437 1.24707 5.673 5.673 0 0 0 1.27246.834 10.83677 10.83677 0 0 1 .95118.53809 4.305 4.305 0 0 1 .87793.73437 3.427 3.427 0 0 1 .89746 2.4209 4.301 4.301 0 0 1-.2959 1.65039 3.66027 3.66027 0 0 1-.78906 1.21 3.22994 3.22994 0 0 1-1.15723.74414 3.90487 3.90487 0 0 1-1.39844.252 4.61377 4.61377 0 0 1-1.95508-.41308 4.11426 4.11426 0 0 1-1.43457-1.04l1.166-1.57813a2.96451 2.96451 0 0 0 .99512.78907 2.67114 2.67114 0 0 0 1.19238.28711 1.50239 1.50239 0 0 0 1.12988-.46582 1.8133 1.8133 0 0 0 .44824-1.30957 1.67284 1.67284 0 0 0-.53808-1.30957 6.144 6.144 0 0 0-1.36231-.89649 8.01478 8.01478 0 0 1-.97754-.55566 3.71223 3.71223 0 0 1-.80664-.72657 3.28986 3.28986 0 0 1-.55664-.98632 3.94649 3.94649 0 0 1-.206-1.35352 4.1655 4.1655 0 0 1 .31347-1.69434 3.452 3.452 0 0 1 .8252-1.1748 3.31672 3.31672 0 0 1 1.15723-.69043 3.96087 3.96087 0 0 1 1.30859-.22461 4.51416 4.51416 0 0 1 1.73047.31445 3.31985 3.31985 0 0 1 1.28223.92286zm6.29492 11.5127a8.81352 8.81352 0 0 1-.42187 1.24316 3.49968 3.49968 0 0 1-.60059.96192 2.44441 2.44441 0 0 1-.85156.6123 2.9086 2.9086 0 0 1-1.15625.21289 5.2396 5.2396 0 0 1-.69043-.04394 3.207 3.207 0 0 1-.54785-.11524l.252-1.81347a2.39919 2.39919 0 0 0 .34961.09863 1.86327 1.86327 0 0 0 .40332.04492.91214.91214 0 0 0 .73535-.2959 1.94856 1.94856 0 0 0 .376-.81543l.26953-1.12988-2.67191-9.36133h2.13379l1.5957 6.88672h.05371l1.45312-6.88672h2.06153zm6.16895-10.41895v1.45215h.03516a2.86182 2.86182 0 0 1 .834-1.24609 2.11706 2.11706 0 0 1 3.3623.63672 3.898 3.898 0 0 1 .34082 1.19238 10.40081 10.40081 0 0 1 .08985 1.37207v5.73828h-2.02639v-5.73828a6.62357 6.62357 0 0 0-.03613-.69043 2.27877 2.27877 0 0 0-.15235-.63672 1.05434 1.05434 0 0 0-.34082-.457.93233.93233 0 0 0-.582-.1709 1.2197 1.2197 0 0 0-1.085.68164 3.33061 3.33061 0 0 0-.40429 1.72168v5.29h-2.02636v-9.14551zm11.15332 9.22657a3.14206 3.14206 0 0 1-1.21875.22363 3.03105 3.03105 0 0 1-1.49219-.3584 3.07421 3.07421 0 0 1-1.083-1.01367 4.83943 4.83943 0 0 1-.65136-1.55078 8.38975 8.38975 0 0 1-.2168-1.97266 8.07732 8.07732 0 0 1 .22559-1.97265 4.76086 4.76086 0 0 1 .66992-1.542 3.109 3.109 0 0 1 1.083-.99511 3.03481 3.03481 0 0 1 1.48242-.34961 2.92156 2.92156 0 0 1 1.26465.251 2.97616 2.97616 0 0 1 .833.55567l-.91406 1.52441a1.79777 1.79777 0 0 0-.457-.3584 1.303 1.303 0 0 0-.63672-.14355 1.225 1.225 0 0 0-1.13867.834 5.2692 5.2692 0 0 0-.38574 2.19629 5.10189 5.10189 0 0 0 .39453 2.1875 1.27323 1.27323 0 0 0 1.20117.8252 1.35219 1.35219 0 0 0 .64551-.14356 1.46226 1.46226 0 0 0 .46679-.39453l.84278 1.57813a2.64718 2.64718 0 0 1-.91507.61909z"/></svg>