<svg xmlns="http://www.w3.org/2000/svg" role="img" viewBox="-3.11 -3.11 174.59 29.21"><title>Braintree (adopter) logo</title><path d="M5.7498 19.443h3.93263c3.0357 0 4.55345-1.0005 4.55345-2.93222 0-1.89701-1.62136-2.93198-4.7949-2.93198H5.7498zm0-14.1433v5.45052h3.44972c2.58715 0 3.93248-.96607 3.93248-2.72527 0-1.79403-1.37976-2.72524-3.96706-2.72524zM.265 22.37539v-2.93237h2.31125V5.2997H.265V2.36734h9.24502c4.24284 0 6.83014 1.96633 6.83014 5.38158 0 2.24222-1.31076 3.62212-2.96656 4.27741 2.38013.65558 4.07043 2.34588 4.07043 4.65696 0 3.6566-2.8286 5.69209-7.45128 5.69209H.265m33.94486-10.41795c-.34493-1.17278-1.20735-1.86292-2.3457-1.86292-2.65605 0-5.17444 1.9663-5.17444 5.55385V19.443h5.10555v2.93237H20.41154v-2.93237h3.24244v-8.83102h-2.55254V7.67973h5.55381v2.48368C27.58675 8.43868 29.484 7.197 32.00211 7.197c2.8289 0 4.58788 1.62136 5.10544 3.93248l-2.89769.82795m15.52405 4.48444c-.96597-.34496-2.41492-.62085-3.76014-.62085-1.93193 0-3.79472.62085-3.79472 2.3803 0 1.3106 1.1727 1.93185 2.79418 1.93185 2.2424 0 4.76068-1.20766 4.76068-3.27718zm0-2.62162v-.82784c0-2.06995-1.65604-2.93237-3.44968-2.93237-1.69026 0-3.13921.69018-4.31227 1.75917l-2.00073-2.17286c1.38015-1.27658 3.3463-2.44935 6.313-2.44935 3.691 0 6.55432 1.9663 6.55432 5.69165V19.443h2.13867v2.93237h-5.24331v-1.55246c-.79345 1.27642-2.93212 2.03508-5.03657 2.03508-3.03585 0-5.6575-1.55204-5.6575-4.62224 0-3.62199 3.5534-5.0019 6.79563-5.0019 1.58725 0 2.8979.3105 3.89844.5864m18.00762-9.07247h-3.4151V.26335h3.4151zm5.6575 14.69522v2.93237H58.56555v-2.93237h6.14049v-8.83102H60.0145V7.67973h7.72703v11.76328h5.6575m3.65748 0h2.24204v-8.83102H77.1941V7.67973h5.10572v1.89729c.89682-1.4487 2.7596-2.38002 5.03622-2.38002 3.27716 0 5.62293 2.06966 5.62293 5.41576V19.443h2.2424v2.93237H87.5777v-2.93237h2.34577v-6.00244c0-2.55254-1.55232-3.27716-2.9667-3.27716-2.31155 0-4.62239 1.72512-4.62239 4.38103v4.89857h2.34542v2.93237h-7.6233v-2.93237m22.31954-8.83102H95.5471V7.67973h3.82894V2.36734h3.03549v5.3124h7.14067v2.93225h-7.14067v6.17467c0 2.27708 1.5869 3.20829 3.4151 3.20829 1.72484 0 3.17379-.96564 4.24313-2.03508l2.0353 2.10398c-1.34523 1.4491-3.4151 2.79415-6.27843 2.79415-3.691 0-6.4506-2.03508-6.4506-5.96754v-6.27847m29.2877 1.34544c-.34504-1.17278-1.20728-1.86292-2.34577-1.86292-2.65588 0-5.17452 1.9663-5.17452 5.55385V19.443h5.10572v2.93237h-11.3838v-2.93237h3.2426v-8.83102h-2.55252V7.67973h5.55378v2.48368c.9314-1.72473 2.82875-2.96641 5.34704-2.96641 2.82875 0 4.5878 1.62136 5.10537 3.93248l-2.8979.82795m8.17649 1.55246h9.03768c-.44841-2.10438-2.3112-3.51875-4.38072-3.51875-2.34612 0-4.13975 1.4488-4.65696 3.51875zm12.24604 6.62328c-1.51774 1.5865-4.20855 2.72483-7.20982 2.72483-4.93285 0-8.38253-3.31163-8.38253-7.8305 0-4.51888 3.34631-7.8305 8.00327-7.8305 4.62239 0 7.86497 3.55322 7.86497 8.38242v.51749H136.7023c.5172 2.44934 2.5525 3.93249 5.20873 3.93249 2.20783 0 4.10483-.89676 5.13995-2.03507l2.0353 2.13884m6.62382-6.62328h9.03803c-.4484-2.10438-2.3112-3.51875-4.38107-3.51875-2.34541 0-4.1394 1.4488-4.65696 3.51875zm12.2464 6.62328c-1.5181 1.5865-4.20856 2.72483-7.20983 2.72483-4.93285 0-8.38252-3.31163-8.38252-7.8305 0-4.51888 3.34595-7.8305 8.00291-7.8305 4.62274 0 7.86532 3.55322 7.86532 8.38242v.51749h-12.66022c.51755 2.44934 2.55286 3.93249 5.20909 3.93249 2.20782 0 4.10483-.89676 5.13994-2.03507l2.0353 2.13884"/></svg>