<svg xmlns="http://www.w3.org/2000/svg" role="img" viewBox="-3.20 -3.20 166.53 40.41"><title>Compara (adopter) logo</title><path fill="#2839CC" d="M77.844 8.87111c-1.3085-1.43128-3.0584-2.14692-5.2496-2.14692-2.5193 0-4.4157.91955-5.689 2.75864-1.1191-1.83713-2.8504-2.75668-5.194-2.75864-2.3904 0-4.1588.85583-5.3052 2.56748 0-1.12237-.9063-2.03222-2.0243-2.03222h-2.9031V26.4258h4.9274V15.656c0-1.4058.3242-2.4842.9726-3.2351.6612-.7465 1.6219-1.1547 2.616-1.1117 1.0165 0 1.8075.3206 2.367.9587.5595.6382.8407 1.5499.8407 2.6969v11.4699h4.9245V15.656c0-1.4058.3115-2.4842.9345-3.2351.6562-.7552 1.6221-1.1652 2.6189-1.1117.8912-.0514 1.7585.3004 2.3641.9587.5605.6392.8407 1.5333.8407 2.6822V26.42h4.9274V14.6207c0-2.4018-.6562-4.3183-1.9686-5.74959z"/><path fill="#2839CC" fill-rule="evenodd" d="M93.1522 6.72455c2.5181-.02304 4.9226 1.04893 6.5917 2.93874 1.8241 1.95331 2.7361 4.34441 2.7361 7.17351 0 2.829-.911 5.2231-2.7332 7.1822-1.6698 1.8889-4.0738 2.9607-6.5917 2.9388-2.6762 0-4.7395-.9316-6.19-2.7948v9.9095h-4.935V7.2594h2.6742c1.2458 0 2.2562 1.01132 2.2579 2.2599 1.4504-1.86317 3.5138-2.79475 6.19-2.79475zM92.2256 22.247c1.4246.0447 2.8043-.5031 3.8119-1.5135 1.0221-1.0296 1.5749-2.4363 1.5277-3.8879.0526-1.4492-.4938-2.8558-1.5101-3.888-1.0076-1.0104-2.3873-1.5582-3.8119-1.5134-1.418-.046-2.7909.5024-3.7885 1.5134-1.0061 1.0373-1.5444 2.4424-1.4896 3.888-.058 1.4438.476 2.8486 1.4778 3.8879.9962 1.0095 2.3667 1.5578 3.7827 1.5135zM119.724 9.51357c0-1.24571 1.01-2.25555 2.255-2.25555h2.675V26.3907h-4.93V24.138c-1.48 1.8596-3.557 2.7894-6.232 2.7894-2.547-.0039-4.732-.9816-6.554-2.9331-1.823-1.9515-2.734-4.341-2.734-7.1685-.005-2.8236.906-5.2131 2.734-7.1685 1.828-1.95541 4.013-2.93311 6.554-2.93311 2.677 0 4.754.92979 6.232 2.78938zm-5.323 12.69453c1.425.0443 2.805-.5024 3.813-1.5106 1.016-1.0306 1.562-2.4343 1.51-3.8805.053-1.4464-.494-2.8503-1.51-3.8805-1.008-1.0082-2.388-1.5548-3.813-1.5105-1.417-.0444-2.788.5028-3.786 1.5105-1.004 1.0365-1.542 2.438-1.49 3.8805-.052 1.4424.486 2.8437 1.49 3.8805.998 1.0077 2.369 1.5549 3.786 1.5106zm41.453-14.28945c.423-.423.996-.66063 1.594-.66063h2.685V26.3907h-4.939V24.138c-1.479 1.8596-3.555 2.7894-6.228 2.7894-2.546-.0039-4.73-.9816-6.551-2.9331-1.821-1.9515-2.732-4.341-2.732-7.1685-.006-2.8236.905-5.2131 2.732-7.1685 1.827-1.95541 4.01-2.93311 6.551-2.93311 2.673 0 4.749.92979 6.228 2.78938 0-.59821.238-1.17192.66-1.59492zm-5.98 14.28945c1.424.0443 2.803-.5024 3.811-1.5106 1.015-1.0306 1.561-2.4343 1.509-3.8805.053-1.4464-.494-2.8503-1.509-3.8805-1.008-1.0082-2.387-1.5549-3.811-1.5105-1.416-.0466-2.788.501-3.784 1.5105-1.006 1.0348-1.546 2.4372-1.492 3.8805-.053 1.4437.487 2.8461 1.495 3.8805.995 1.0087 2.366 1.5563 3.781 1.5106z" clip-rule="evenodd"/><path fill="#2839CC" d="M39.1575 6.83134c-4.7557-.02645-8.1701 2.73023-9.6197 6.26866 2.5348.2714 5.0972-.0869 7.4615-1.0433l.0554-.0272c1.3088-.5637 2.7706-.5365 4.0794.0272l.0586.0264c1.5257.6848 2.7351 2.1572 2.8757 4.4084 0 .1616.0175.3232.0175.4908 0 .1675 0 .3144-.0175.4672v.1352a.07859.07859 0 0 0 0 .0265c-.2079 2.1307-1.4203 3.5267-2.9284 4.1615l-.2226.0911c-1.4661.543-3.0973.4007-4.4481-.388l-.1054-.0646a4.89398 4.89398 0 0 1-.4744-.3468c-2.0605-1.6047-4.4926-2.6593-7.0691-3.0653.2362 2.2967 1.2733 4.4357 2.9284 6.0394 6.2871 6.2158 17.6638 2.116 17.7107-7.1033.0205-5.7749-4.6239-10.08329-10.302-10.10386zM24.6621 17.9668c.4773-.0558.9839-.0911 1.5345-.1058-2.1981 6.5743-9.0031 10.4067-15.7397 8.8641C3.72028 25.1826-.75498 18.7672.10582 11.8867.96662 5.00616 6.88325-.09977 13.7907.07692 20.6982.25361 26.348 5.6554 26.8584 12.571c-.3251-.0882-.6472-.1881-.9634-.2939l-.0615-.0206-.1347-.0499h-.0176c-1.6042-.5803-3.0824-1.4642-4.3545-2.60388-.0849-.07347-.1698-.15282-.2518-.23217l-.2519-.24687v-.01469l-.0702-.07347c-.0586-.05878-.1172-.11756-.1728-.17927l-.0849-.09111-.208-.22923-.0644-.07641c-.0351-.03821-.0703-.07641-.1025-.11756l-.123-.14988C15.1215 2.22318 5.56335 5.45889 5.0626 12.9648c-.16259 2.3323.64302 4.6283 2.22588 6.3437 1.58286 1.7155 3.80212 2.6977 6.13162 2.714h.3749a7.65159 7.65159 0 0 0 2.4393-.4644l.0615-.0235a11.46083 11.46083 0 0 0 1.9444-1.0022c.825-.5393 1.6805-1.03 2.5623-1.4694 1.2078-.5674 2.3557-.9318 3.6819-1.0726l.1777-.0236z"/><path fill="#4168FF" d="M34.1266 16.9029c0 1.8868.6756 3.2684 1.7328 4.1383-2.0615-1.5943-4.467-2.6429-7.039-3.0421-.168-1.6741.0758-3.3437.7148-4.8993 2.5347.2714 5.1317-.0983 7.496-1.0547-1.6106.7435-2.8929 2.3421-2.9046 4.8578z" opacity=".6"/><path fill="#fff" d="M16.3075 21.5258a11.46083 11.46083 0 0 0 1.9444-1.0022 8.4018 8.4018 0 0 1-1.9444 1.0022zm9.3737-9.331c-1.6042-.5802-3.0824-1.4642-4.3545-2.60383 1.2776 1.13203 2.7543 2.01513 4.3545 2.60383z" opacity=".6"/><path fill="#2839CC" d="M132.182 9.09909l-.4.36674c-.006-1.10669-.907-2.00092-2.017-2.0025h-2.894V26.4347h4.911v-9.0695c-.066-1.5043.583-2.9516 1.752-3.906 2.169-1.8599 4.545-.6753 4.904-.5385l2.231-3.62369c-1.113-1.04781-2.534-1.41455-3.796-1.52224-1.713-.16009-3.407.18628-4.691 1.32432z"/></svg>