<svg xmlns="http://www.w3.org/2000/svg" role="img" xmlns:xlink="http://www.w3.org/1999/xlink" viewBox="-2.35 4.65 616.20 166.20"><title>Conduit (adopter) logo</title><defs><linearGradient id="a" x1="11.023" x2="66.727" y1="172.32" y2="19.137" gradientUnits="userSpaceOnUse"><stop offset="0" stop-color="#6c2986"/><stop offset="1" stop-color="#783dc0"/></linearGradient><linearGradient id="c" x1="21.987" x2="77.69" y1="176.307" y2="23.124" xlink:href="#a"/><linearGradient id="d" x1="53.379" x2="109.082" y1="187.723" y2="34.539" xlink:href="#a"/><linearGradient id="e" x1="77.185" x2="132.888" y1="196.379" y2="43.196" xlink:href="#a"/><linearGradient id="f" x1="65.803" x2="121.506" y1="192.24" y2="39.057" xlink:href="#a"/><linearGradient id="g" x1="34.573" x2="90.276" y1="180.884" y2="27.7" xlink:href="#a"/><linearGradient id="b" x1="208.256" x2="280.882" y1="87.874" y2="87.874" gradientUnits="userSpaceOnUse"><stop offset="0" stop-color="#71319d"/><stop offset="1" stop-color="#7538b2"/></linearGradient><linearGradient id="h" x1="281.298" x2="340.887" y1="99.809" y2="99.809" xlink:href="#b"/><linearGradient id="i" x1="348.649" x2="401.284" y1="99.383" y2="99.383" xlink:href="#b"/><linearGradient id="j" x1="408.584" x2="464.07" y1="87.161" y2="87.161" xlink:href="#b"/><linearGradient id="k" x1="474.449" x2="527.087" y1="100.295" y2="100.295" xlink:href="#b"/><linearGradient id="l" x1="538.55" x2="553.867" y1="99.839" y2="99.839" xlink:href="#b"/><linearGradient id="m" x1="536.499" x2="555.918" y1="53.204" y2="53.204" xlink:href="#b"/><linearGradient id="n" x1="560.027" x2="602.169" y1="91.151" y2="91.151" xlink:href="#b"/></defs><path fill="url(#a)" d="M82.369 59.775L68.143 45.699 21.756 59.152 9.677 106.731l12.884 14.226 11.455-47.493 48.353-13.689z"/><path fill="url(#c)" d="M104.915 74.723l4.619-18.302-35.31-33.668-47.401 13.784-4.518 18.239 46.173-14.075 36.437 34.022z"/><path fill="url(#d)" d="M102.767 104.408l18.211-5.234 11.985-48.637-35.288-33.982-19.181 4.755 35.207 33.038-10.934 50.06z"/><path fill="url(#e)" d="M135.195 55.232l-11.183 47.762-47.547 13.424 14.227 14.075 45.044-13.187 13.149-46.775-13.69-15.299z"/><path fill="url(#f)" d="M53.336 100.321l-4.95 18.214 34.694 34.304 47.643-12.922 4.848-18.155-46.421 13.235-35.814-34.676z"/><path fill="url(#g)" d="M56.312 71.587l-18.769 5.155-11.652 47.243 35.139 35.208 18.128-4.945-34.794-33.457 11.948-49.204z"/><path fill="url(#b)" d="M268.35007 110.50146a25.77694 25.77694 0 0 1-3.78509 2.9047 21.65729 21.65729 0 0 1-4.02166 1.942 22.71082 22.71082 0 0 1-4.67148 1.11846 44.02968 44.02968 0 0 1-5.9142.35635 25.06423 25.06423 0 0 1-9.82807-1.93 22.663 22.663 0 0 1-7.90258-5.58032 26.62438 26.62438 0 0 1-5.32728-9.05547 36.43237 36.43237 0 0 1-1.96142-12.3839 37.47734 37.47734 0 0 1 1.88057-12.315 26.46673 26.46673 0 0 1 5.19252-9.05248 21.82716 21.82716 0 0 1 7.88462-5.5923 26.2 26.2 0 0 1 10.17543-1.933 25.7651 25.7651 0 0 1 13.34365 3.19068 39.67671 39.67671 0 0 1 3.5605 2.2429c2.42857 1.76977 4.70741 1.617 6.10586.59741a6.48676 6.48676 0 0 0 1.43139-1.43737l5.1506-7.2917-.95526-.91333a40.51109 40.51109 0 0 0-12.28658-7.96547 41.73386 41.73386 0 0 0-16.29327-2.999 44.15871 44.15871 0 0 0-16.967 3.19368 38.78746 38.78746 0 0 0-13.28376 8.9881 40.61725 40.61725 0 0 0-8.58832 13.79133 49.07542 49.07542 0 0 0-3.03347 17.49558 51.45877 51.45877 0 0 0 2.85379 17.44017 40.12256 40.12256 0 0 0 8.208 13.77037 37.43432 37.43432 0 0 0 12.91543 9.02853 42.68845 42.68845 0 0 0 16.87121 3.2311 44.03553 44.03553 0 0 0 18.063-3.41077 35.48935 35.48935 0 0 0 12.85854-9.73673l.85644-1.03162-6.21666-6.75118c-1.64696-1.75486-4.20729-1.80577-6.31545.08828z"/><path fill="url(#h)" d="M332.80147 76.90426a26.617 26.617 0 0 0-9.42381-6.34841 34.9294 34.9294 0 0 0-24.51027 0 26.87565 26.87565 0 0 0-9.45076 6.34392 28.01183 28.01183 0 0 0-6.034 9.94036 38.114 38.114 0 0 0-2.08418 12.94087 38.11049 38.11049 0 0 0 2.08419 12.94238 28.28 28.28 0 0 0 6.028 9.96432 26.66916 26.66916 0 0 0 9.45675 6.37686 34.95151 34.95151 0 0 0 24.51027 0 26.41226 26.41226 0 0 0 9.4268-6.37986 28.474 28.474 0 0 0 5.99806-9.96132 38.11049 38.11049 0 0 0 2.08419-12.94238 38.114 38.114 0 0 0-2.08419-12.94089 28.17583 28.17583 0 0 0-6.00105-9.93585zm-7.63008 22.93365c0 6.17174-1.19482 10.93755-3.55152 14.16865-2.27585 3.1218-5.7016 4.64-10.4689 4.64-4.84516 0-8.31882-1.51972-10.61862-4.646-2.37167-3.22661-3.57548-7.99242-3.57548-14.16266 0-6.17173 1.20381-10.957 3.58147-14.22554 2.2998-3.15923 5.77047-4.69543 10.61263-4.69543 4.76431 0 8.18706 1.5347 10.46591 4.69094 2.35969 3.27004 3.55451 8.05831 3.55451 14.23004z"/><path fill="url(#i)" d="M395.93227 74.96979a18.4068 18.4068 0 0 0-6.64487-4.908 22.28 22.28 0 0 0-9.02254-1.72635 25.20274 25.20274 0 0 0-5.95014.67077 24.65524 24.65524 0 0 0-5.16258 1.88357 27.54423 27.54423 0 0 0-4.55769 2.86726c-.64382.50009-1.28465 1.03162-1.9135 1.5916l-.43122-2.66514a4.52725 4.52725 0 0 0-4.66249-3.43623h-8.93869v61.18286h15.31406V87.183a24.332 24.332 0 0 1 5.77346-4.39748 14.40334 14.40334 0 0 1 6.88144-1.6979c3.2371 0 5.54289.88189 7.05513 2.69658 1.56015 1.87008 2.35071 4.60709 2.35071 8.13465v38.51123h15.26016V91.91886a32.10046 32.10046 0 0 0-1.32359-9.4253 20.98935 20.98935 0 0 0-4.02765-7.52377z"/><path fill="url(#j)" d="M448.75289 72.46486a22.42552 22.42552 0 0 0-4.27321-2.54086 22.66641 22.66641 0 0 0-9.34894-1.75929 24.25225 24.25225 0 0 0-19.48844 9.26659 30.9877 30.9877 0 0 0-5.24942 10.09608 41.55832 41.55832 0 0 0-1.8087 12.48272 48.73245 48.73245 0 0 0 1.623 13.1505 29.33479 29.33479 0 0 0 4.67148 9.82507 20.6892 20.6892 0 0 0 7.38153 6.17474 21.38974 21.38974 0 0 0 9.56455 2.12312 23.19491 23.19491 0 0 0 11.54992-2.81785 31.51462 31.51462 0 0 0 6.552-4.932l.59891 3.45869a4.48188 4.48188 0 0 0 4.6026 3.43773h8.94169V43.03756h-15.317zm-4.71041 9.41183a12.62178 12.62178 0 0 1 4.71041 3.74167v25.98958a21.47587 21.47587 0 0 1-5.54588 4.947 14.03022 14.03022 0 0 1-7.27972 1.8057 12.06979 12.06979 0 0 1-4.908-.95226 8.50036 8.50036 0 0 1-3.53056-2.96459 16.24526 16.24526 0 0 1-2.37766-5.64919 38.34965 38.34965 0 0 1-.86842-8.78447c0-6.49814 1.25471-11.42715 3.7282-14.65077a11.79857 11.79857 0 0 1 10.00774-4.67 15.39191 15.39191 0 0 1 6.06389 1.18733z"/><path fill="url(#k)" d="M511.7699 112.55122a23.815 23.815 0 0 1-5.76448 4.36453 14.472 14.472 0 0 1-6.83353 1.67395c-3.2371 0-5.54289-.88189-7.05513-2.69658-1.56015-1.87009-2.35071-4.6071-2.35071-8.13466V69.24723H474.449v38.51123a32.06844 32.06844 0 0 0 1.32358 9.4238 20.98021 20.98021 0 0 0 4.03065 7.52527 18.303 18.303 0 0 0 6.67482 4.908 22.428 22.428 0 0 0 9.04949 1.72784 25.18974 25.18974 0 0 0 5.9172-.67077 24.607 24.607 0 0 0 5.19252-1.88656 26.574 26.574 0 0 0 4.56667-2.9017q.95676-.75464 1.87757-1.5901l.46116 2.69807a4.48188 4.48188 0 0 0 4.6026 3.43773h8.94174V69.24723H511.77z"/><path fill="url(#l)" d="M538.55 69.247h15.317v61.183H538.55z"/><path fill="url(#m)" d="M553.00166 46.351a10.28184 10.28184 0 0 0-3.10833-2.07671 9.50922 9.50922 0 0 0-7.5612.009 9.81126 9.81126 0 0 0-3.00651 2.09617 10.251 10.251 0 0 0-2.03928 3.04095 9.32033 9.32033 0 0 0-.78757 3.81055 9.19423 9.19423 0 0 0 .78457 3.75065 10.27786 10.27786 0 0 0 2.04527 3.04695 9.72581 9.72581 0 0 0 3.00052 2.09168 9.0048 9.0048 0 0 0 3.73719.792 9.58226 9.58226 0 0 0 3.827-.78157 10.28745 10.28745 0 0 0 3.10833-2.07521 9.83064 9.83064 0 0 0 2.13211-3.0739 9.25633 9.25633 0 0 0 .78457-3.75065 9.3941 9.3941 0 0 0-.78757-3.81205 9.7982 9.7982 0 0 0-2.1291-3.06786z"/><path fill="url(#n)" d="M597.86879 117.868a3.253 3.253 0 0 0-4.89307-1.26219c-.33539.22908-.73366.47313-1.18584.73665a9.611 9.611 0 0 1-1.52122.68276 5.77369 5.77369 0 0 1-1.92848.27849 3.83254 3.83254 0 0 1-2.97957-1.16338 5.36 5.36 0 0 1-1.12894-3.74167V81.94257h16.12558V70.04528h-16.12558V50.95811h-7.80076a4.16258 4.16258 0 0 0-2.83583.97921 4.87883 4.87883 0 0 0-1.47031 2.478l-2.50044 15.69436-9.59749 1.39545v6.284a3.95833 3.95833 0 0 0 1.25771 3.11282 4.12967 4.12967 0 0 0 2.78192 1.0406h4.84815v32.311c0 5.32279 1.45834 9.54209 4.3301 12.54111 2.88973 3.0185 7.00722 4.5487 12.24466 4.5487a25.90629 25.90629 0 0 0 8.47753-1.42539 21.42852 21.42852 0 0 0 7.2348-4.14444l.96723-.84746z"/></svg>