<svg xmlns="http://www.w3.org/2000/svg" role="img" viewBox="-9.07 -0.33 211.90 198.40"><title>Directlyrics (adopter) logo</title><defs><filter id="Blur7" width="120" height="120" x="-10" y="-10"><feGaussianBlur stdDeviation="7"/></filter><style>.cls-2{fill:#fff}.cls-3{fill:#fc6621}</style></defs><g filter="url(#Blur7)" opacity=".62"><path d="M144.514 19.365h38.929v157.463h-38.929z" class="cls-2"/><path d="M52.973 179.12a46.381 46.381 0 0 1-9.741-.984 36.26958 36.26958 0 0 1-8.518-2.952 33.75154 33.75154 0 0 1-7.296-4.917 38.32192 38.32192 0 0 1-6.074-6.888 58.80594 58.80594 0 0 1-8.194-17.436 75.95872 75.95872 0 0 1-2.732-20.828 74.81912 74.81912 0 0 1 3.018-22.231 43.40892 43.40892 0 0 1 9.052-16.317 40.00007 40.00007 0 0 1 13.7-10.018 42.25615 42.25615 0 0 1 16.972-3.34 42.939 42.939 0 0 1 16.458 3.058 37.6 37.6 0 0 1 13.119 9.159V19.367h39.215v157.462H85.604v-14.98c-5.065 6.332-9.752 10.665-13.93 12.881a37.82619 37.82619 0 0 1-8.874 3.292 43.08372 43.08372 0 0 1-9.827 1.098zm5.906-70.708a18.492 18.492 0 1 0 7.22 1.455 18.492 18.492 0 0 0-7.22-1.455z" class="cls-3"/><path fill="#999" d="M144.514 19.365h38.929v157.463h-38.929zM52.973 179.12a46.381 46.381 0 0 1-9.741-.984 36.26958 36.26958 0 0 1-8.518-2.952 33.75154 33.75154 0 0 1-7.296-4.917 38.32192 38.32192 0 0 1-6.074-6.888 58.80594 58.80594 0 0 1-8.194-17.436 75.95872 75.95872 0 0 1-2.732-20.828 74.81912 74.81912 0 0 1 3.018-22.231 43.40892 43.40892 0 0 1 9.052-16.317 40.00007 40.00007 0 0 1 13.7-10.018 42.25615 42.25615 0 0 1 16.972-3.34 42.939 42.939 0 0 1 16.458 3.058 37.6 37.6 0 0 1 13.119 9.159V19.367h39.215v157.462H85.604v-14.98c-5.065 6.332-9.752 10.665-13.93 12.881a37.82619 37.82619 0 0 1-8.874 3.292 43.08372 43.08372 0 0 1-9.827 1.098zm5.906-70.708a18.492 18.492 0 1 0 7.22 1.455 18.492 18.492 0 0 0-7.22-1.455z"/></g><path d="M141.99254 20.5123h38.929v157.463h-38.929z" class="cls-2"/><path d="M52.973 179.12a46.38029 46.38029 0 0 1-9.741-.984 36.26955 36.26955 0 0 1-8.518-2.952 33.75162 33.75162 0 0 1-7.296-4.917 38.32192 38.32192 0 0 1-6.074-6.888 58.80594 58.80594 0 0 1-8.194-17.436 75.95881 75.95881 0 0 1-2.732-20.828 74.81905 74.81905 0 0 1 3.018-22.231 43.40884 43.40884 0 0 1 9.052-16.317 39.9999 39.9999 0 0 1 13.7-10.018 42.25615 42.25615 0 0 1 16.972-3.34 42.93915 42.93915 0 0 1 16.458 3.058 37.6 37.6 0 0 1 13.119 9.159V19.367h39.215v157.462H85.604v-14.98c-5.065 6.332-9.752 10.665-13.93 12.881a37.82644 37.82644 0 0 1-8.874 3.292 43.08372 43.08372 0 0 1-9.827 1.098zm5.906-70.708a18.492 18.492 0 1 0 7.22 1.455 18.492 18.492 0 0 0-7.22-1.455z" class="cls-3"/></svg>