<svg xmlns="http://www.w3.org/2000/svg" role="img" viewBox="-4.45 -5.95 621.40 173.40"><title>DueDil (adopter) logo</title><path fill="#db1d56" d="M82.21653 6.42522A74.56846 74.56846 0 0 0 21.52347 124.4013l17.62923-17.70463a50.20789 50.20789 0 1 1 17.60795 17.5291l-17.63128 17.70668A74.61 74.61 0 1 0 82.21653 6.42522z"/><circle cx="82.216" cy="81.055" r="26.193" fill="#ee1555" transform="rotate(-45 82.216 81.055)"/><path stroke="#000" stroke-miterlimit="10" stroke-width="3.567" d="M233.66989 31.74845H191.95v96.71524h41.71987c29.52955 0 43.8876-20.86037 43.8876-48.8989.00002-32.104-18.82761-47.81634-43.88758-47.81634zm-1.49015 78.83517h-18.9635v-60.9551h15.1715c21.13036 0 27.90353 12.46206 27.90353 31.96727 0 21.40208-11.78447 28.98783-24.11153 28.98783zm104.57794-15.44148c0 14.22219-4.46958 20.04693-14.89977 20.04693-8.93916 0-12.32531-5.68888-12.32531-17.20249V58.43269h-19.23523v43.0759c0 17.33836 5.14716 28.852 25.60168 28.852a24.98363 24.98363 0 0 0 21.40209-11.64948h.40585v9.75261h18.28592v-70.031h-19.23523zm66.24074-38.60545c-21.26622 0-35.76014 15.98407-35.76014 36.97856 0 21.67382 13.68221 36.84531 35.76014 36.84531 15.84907 0 27.36269-7.044 32.78158-23.57068h-16.93251c-1.21929 4.33546-7.44988 9.07677-15.17149 9.07677-10.70018 0-16.66078-5.55476-17.20249-17.74421h50.524c1.35519-21.53795-10.15842-41.58575-33.99909-41.58575zm-16.52491 29.39456c.27-5.41889 3.792-14.90064 15.98319-14.90064 9.34676 0 13.54635 5.14716 15.30736 14.90064zM492.134 31.74845h-41.72074v96.71524H492.134c29.52955 0 43.8876-20.86037 43.8876-48.8989 0-32.104-18.82937-47.81634-43.8876-47.81634zm-1.491 78.83517h-18.9635v-60.9551h15.1715c21.13036 0 27.90266 12.46206 27.90266 31.96727-.00002 21.40208-11.78366 28.98783-24.11066 28.98783zM549.301 58.433h19.235v70.031h-19.235zm0-26.685h19.235v15.848h-19.235zm34.949 0h19.235v96.715H584.25z"/></svg>