<svg xmlns="http://www.w3.org/2000/svg" role="img" viewBox="0.06 1.56 321.88 92.63"><title>Ediket (adopter) logo</title><defs><style>.cls-1{fill:#313131}</style></defs><path d="M39.61449 88.16862q-16.11768 0-24.7085-7.7041-8.59057-7.70361-8.59033-21.94531 0-13.938 8.00781-22.25 8.00757-8.31153 22.40186-8.312 13.07594 0 19.665 7.04492 6.58814 7.04517 6.58887 20.17139v6.38672h-38.874a16.176 16.176 0 0 0 1.67237 6.61425 11.54291 11.54291 0 0 0 3.75048 4.23145 15.12117 15.12117 0 0 0 5.32178 2.25586 30.252 30.252 0 0 0 6.63965.68359 27.19385 27.19385 0 0 0 6.082-.68359 29.23993 29.23993 0 0 0 5.47367-1.7998 35.80962 35.80962 0 0 0 4.0293-2.07812q1.84937-1.11329 3.01563-1.97656h1.87548v14.64744q-2.17968.86279-3.97851 1.59668a35.9995 35.9995 0 0 1-4.9419 1.49511 51.76588 51.76588 0 0 1-5.95507 1.19145 55.07965 55.07965 0 0 1-7.47559.43062zm5.87891-37.30273q-.15162-5.62573-2.60987-8.56543-2.45948-2.93921-7.52685-2.93945a10.57386 10.57386 0 0 0-8.084 3.09131 12.89727 12.89727 0 0 0-3.21826 8.41357zm79.50741 35.78223h-17.73926v-5.92969q-1.72339 1.41944-3.92774 3.041a25.68739 25.68739 0 0 1-3.87744 2.43262 21.82744 21.82744 0 0 1-4.20654 1.52051 21.25692 21.25692 0 0 1-4.9668.50684 17.8861 17.8861 0 0 1-15.40771-8.0586q-5.677-8.0581-5.67676-21.54a38.97209 38.97209 0 0 1 1.92627-12.9248 30.38643 30.38643 0 0 1 5.32129-9.52832 22.56824 22.56824 0 0 1 7.50146-5.854 20.98066 20.98066 0 0 1 9.32569-2.1538 23.99483 23.99483 0 0 1 7.32373.9375 45.70113 45.70113 0 0 1 6.66455 2.91455V7.78532h17.73926zM107.26155 70.9362V43.00993a14.12411 14.12411 0 0 0-3.44629-1.08984 18.87545 18.87545 0 0 0-3.64941-.43066q-6.386 0-9.6045 4.46-3.219 4.45971-3.21826 12.46826 0 8.41405 2.55957 12.16406 2.55909 3.75147 8.28662 3.75a13.10906 13.10906 0 0 0 4.71338-.91211 16.37034 16.37034 0 0 0 4.35889-2.48344zm45.03977-49.31445h-18.75293V7.78532h18.75293zm-.50684 65.02637h-17.73925v-56.917h17.73925zm67.69989 0h-21.085l-15.40718-24.78418-2.73731 3.70019v21.084h-17.73877V7.78532h17.73877v44.1958l16.82715-22.25h20.93164L198.1057 54.2614z" class="cls-1"/><path d="M248.84341 88.16862q-16.11767 0-24.708-7.7041-8.59131-7.70361-8.59082-21.94531 0-13.938 8.00781-22.25 8.00683-8.31153 22.40137-8.312 13.07665 0 19.665 7.04492 6.58885 7.04517 6.58886 20.17139v6.38672h-38.873a16.16821 16.16821 0 0 0 1.67187 6.61425 11.53533 11.53533 0 0 0 3.751 4.23145 15.1186 15.1186 0 0 0 5.32129 2.25586 30.25182 30.25182 0 0 0 6.63964.68359 27.19394 27.19394 0 0 0 6.082-.68359 29.252 29.252 0 0 0 5.47363-1.79981 35.80962 35.80962 0 0 0 4.0293-2.07812q1.85008-1.11329 3.01562-1.97656h1.875v14.64745q-2.17968.86279-3.97851 1.59668a35.96783 35.96783 0 0 1-4.94141 1.49511A51.76562 51.76562 0 0 1 256.319 87.738a55.07945 55.07945 0 0 1-7.47559.43062zm5.87891-37.30273q-.15234-5.62573-2.61035-8.56543-2.458-2.93921-7.52637-2.93945a10.57311 10.57311 0 0 0-8.084 3.09131 12.89446 12.89446 0 0 0-3.21778 8.41357zm47.10089 36.89746q-10.84571 0-15.78711-4.46-4.94238-4.46045-4.94238-14.59668V42.09782h-6.791v-12.3667h6.791V13.46159H298.833v16.26953h17.08008v12.3667H298.833v20.17139q0 2.99121.05078 5.2207a10.68618 10.68618 0 0 0 .81152 4.00391 5.59925 5.59925 0 0 0 2.50879 2.8125 10.649 10.649 0 0 0 5.24512 1.03906 20.89767 20.89767 0 0 0 6.94336-1.72265h1.52051v12.51855a50.11974 50.11974 0 0 1-6.13184 1.19141 62.07137 62.07137 0 0 1-7.95803.43066z" class="cls-1"/></svg>