<svg xmlns="http://www.w3.org/2000/svg" role="img" viewBox="-1.84 -1.84 95.55 33.67"><title>Loggi (adopter) logo</title><g fill="#00baff" fill-rule="evenodd"><g class="letters"><path d="M34 22.987h11v-3.303h-7.541V4.987H34zm18.05076-3.09766c-2.05616-.0147-3.51121-1.55502-3.48852-3.69309.02244-2.12796 1.46651-3.60296 3.52542-3.60096 2.0776.00199 3.50871 1.49893 3.49887 3.65993-.0098 2.1514-1.4669 3.64896-3.53577 3.63412zm.03466-10.28692c-3.84156-.01359-6.78294 2.8616-6.78232 6.62974.00062 3.77511 2.92655 6.64619 6.77035 6.64344 3.8665-.0026 6.77472-2.84938 6.77397-6.63073-.00063-3.79768-2.88267-6.62886-6.762-6.64245z"/><path d="M35.765 11.3066c-.02742 2.12996-1.47623 3.61057-3.53227 3.59573-2.05616-.01471-3.5112-1.55502-3.48852-3.69296.02256-2.1281 1.46652-3.60309 3.52542-3.6011 2.06302.00213 3.48516 1.47961 3.49538 3.61618 0 .02743-.00013.05473 0 .08215m-.0029-5.78852c-1.0064-.56983-2.19204-.89819-3.49475-.90267-3.84157-.0136-6.78295 2.8616-6.78232 6.62973.00062 3.77512 2.92654 6.6462 6.77047 6.64357 1.30683-.001 2.49959-.3331 3.51233-.91015.00038.87886.00075 1.4336.00075 1.4336-.0098 2.15178-1.46689 3.64485-3.53589 3.64485-2.65678 0-3.8251-2.5745-3.8251-2.5745l-2.43377 1.4776s1.3982 4.08329 6.28168 4.08329c3.86637-.0027 6.7746-2.84951 6.77397-6.63086V4.60544h-3.26774s.00012.33995.00037.91264" mask="url(#mask-2)" transform="translate(34 4.987)"/><path d="M49.947 11.30734c-.0278 2.12959-1.4765 3.60981-3.53228 3.59498-2.05616-.01471-3.5112-1.55503-3.48852-3.69297.02256-2.12809 1.46651-3.60308 3.52542-3.60096 2.06277.00199 3.48465 1.47923 3.49538 3.6153 0 .02792-.00013.05572 0 .08365m-.0029-5.78927c-1.00636-.56983-2.19201-.89819-3.4946-.90267-3.84156-.0136-6.78307 2.8616-6.78245 6.62973.00063 3.77512 2.92655 6.64619 6.77048 6.64357 1.30683-.001 2.49971-.33297 3.51233-.91002.00038.87886.00075 1.43348.00075 1.43348-.0098 2.15177-1.46689 3.64484-3.5359 3.64484-2.65677 0-3.8251-2.5745-3.8251-2.5745l-2.43376 1.4776s1.3982 4.08328 6.28168 4.08328c3.86637-.0027 6.7746-2.8495 6.77397-6.63085V4.60543h-3.26775s.00013.34007.00038.91264" mask="url(#mask-4)" transform="translate(34 4.987)"/><path d="M57.876 4.605h-3.345v13.093h3.345zm-1.67247-1.26327c.92387 0 1.67283-.74896 1.67283-1.67283 0-.92386-.74896-1.6727-1.67283-1.6727-.92386 0-1.67283.74884-1.67283 1.6727 0 .92387.74897 1.67283 1.67283 1.67283" mask="url(#mask-6)" transform="translate(34 4.987)"/></g><path d="M-6.4294 2.51944c-.74796-.39306-1.62633-.7375-1.95493-.86216-.11307-.0814-.18512-.13513-.18512-.13513s-4.4301-3.16901-6.38328-3.9909c-1.95332-.82202-5.3501-2.6114-8.79922-2.51455-2.72335.07642-4.4039.58205-4.99143.72304-.69636.16705-1.16197.36351-.39905.72291.25544.1203 1.34435.76866 2.6665 1.52336 1.93139 1.1025 4.36029 2.4319 5.4158 2.67349 1.01062.23124 2.67522.57082 4.80207.5257 2.42715-.05137 3.6077.9842 3.84642 1.36217-.43457-.61683-2.08857-1.11273-4.29458-.97635-2.12323.13127-3.82997-.0111-4.82377-.30667-1.94745-.57917-4.0344-1.44881-5.78914-2.26995-.72166.21977-1.1667.4044-1.43647.51871-.61221.25942-1.18516.72528-.32649.96737.61396.17316 6.35498 2.22683 8.02632 2.32668.95004.05685 2.50843.11294 4.42746-.24907 2.17135-.40976 3.30216.48181 3.56756.82725-.67803 1.03007-1.12183 2.2277-.99492 3.55883-7.93818-1.3997-10.47192-2.12435-12.26442-2.43252-3.13374-.53866-7.11455 2.11613-7.60272 5.40394-.2775 1.8683.19908 3.61343 1.33413 5.22817 1.25658 1.78752 2.90996 3.3292 3.15043 3.65656.15359.27937.1036 1.01724.1142 1.51364.01183.55761.71318 1.05862 1.12157 1.09565.24334.02206 4.94332 1.49057 4.94332 1.49057l6.96295 2.14318s.10571-.48094.12678-.68352c.05335-.51485-.33858-1.78602-1.97014-2.26085-2.40198-.72267-2.87407-.85992-3.38518-1.01362-.27513-.08278-.08215-.0869.34419-.4236.7274-.6172 1.35083-1.44981 1.66934-2.12697 1.42101-3.02142-.36738-5.71198-.36738-5.71198s1.11622 1.17219 1.53558 3.22174c.52395 2.56017-1.21158 4.59153-1.21158 4.59153l1.03568.3003s6.68982-6.73794 7.3433-7.46533c.55162-.6142 1.51127-1.00166 1.99907-1.1601 1.7844-.51772 4.0157-1.5175 4.58317-1.87665.56745-.35915 1.26269-1.62733 1.43722-1.94073.1744-.3134.40327-.7264.44778-1.193.01558-.16394-.9382-1.43623-.9382-1.43623s-1.52548-2.57999-2.78282-3.3449m-19.4701 20.76127c-.3958.23537-.53305.86017.04313 1.19738.51136.26914 2.22907-.67218 2.22907-.67218l-1.72257-.54302s-.27027-.1137-.54963.01783" mask="url(#mask-6)" transform="translate(34 4.987)" class=""/></g></svg>