<?xml version="1.0" encoding="UTF-8" standalone="no"?>
<svg
   xmlns:dc="http://purl.org/dc/elements/1.1/"
   xmlns:cc="http://creativecommons.org/ns#"
   xmlns:rdf="http://www.w3.org/1999/02/22-rdf-syntax-ns#"
   xmlns:svg="http://www.w3.org/2000/svg"
   xmlns="http://www.w3.org/2000/svg"
   xmlns:sodipodi="http://sodipodi.sourceforge.net/DTD/sodipodi-0.dtd"
   xmlns:inkscape="http://www.inkscape.org/namespaces/inkscape"
   version="1.1"
   id="svg2"
   xml:space="preserve"
   width="876.64667"
   height="581.44397"
   viewBox="0 0 876.64667 581.44397"
   sodipodi:docname="HIVEVENTURES_LOGO_STD_FC_PANT.ai"><metadata
     id="metadata8"><rdf:RDF><cc:Work
         rdf:about=""><dc:format>image/svg+xml</dc:format><dc:type
           rdf:resource="http://purl.org/dc/dcmitype/StillImage" /></cc:Work></rdf:RDF></metadata><defs
     id="defs6"><clipPath
       clipPathUnits="userSpaceOnUse"
       id="clipPath54"><path
         d="M 0,436.083 H 657.485 V 0 H 0 Z"
         id="path52" /></clipPath></defs><sodipodi:namedview
     pagecolor="#ffffff"
     bordercolor="#666666"
     borderopacity="1"
     objecttolerance="10"
     gridtolerance="10"
     guidetolerance="10"
     inkscape:pageopacity="0"
     inkscape:pageshadow="2"
     inkscape:window-width="640"
     inkscape:window-height="480"
     id="namedview4" /><g
     id="g10"
     inkscape:groupmode="layer"
     inkscape:label="HIVEVENTURES_LOGO_STD_FC_PANT"
     transform="matrix(1.3333333,0,0,-1.3333333,0,581.444)"><g
       id="g12"
       transform="translate(152.2905,218.1387)"><path
         d="m 0,0 -17.864,10.378 0.121,44.466 -17.824,10.353 -56.447,-32.384 -0.176,-65.079 56.273,-32.695 17.897,10.27 0.12,44.42 z"
         style="fill:#ffbf8a;fill-opacity:1;fill-rule:nonzero;stroke:none"
         id="path14" /></g><g
       id="g16"
       transform="translate(247.1104,293.3882)"><path
         d="m 0,0 -56.059,32.594 -56.448,-32.386 -0.056,-20.613 38.446,-22.338 -0.053,-20.66 17.899,10.272 38.527,-22.303 L 0,-65.277 Z"
         style="fill:#bcc0c3;fill-opacity:1;fill-rule:nonzero;stroke:none"
         id="path18" /></g><g
       id="g20"
       transform="translate(152.2905,218.1387)"><path
         d="m 0,0 20.649,11.846 0.054,20.661 -38.446,22.337 -0.121,-44.466 z"
         style="fill:#f79b4a;fill-opacity:1;fill-rule:nonzero;stroke:none"
         id="path22" /></g><g
       id="g24"
       transform="translate(172.8755,206.1797)"><path
         d="m 0,0 -0.053,-20.616 -38.552,-22.116 -0.055,-20.657 56.273,-32.69 56.622,32.512 V 1.501 L 56.491,11.775 17.824,-10.356 Z"
         style="fill:#ffbf8a;fill-opacity:1;fill-rule:nonzero;stroke:none"
         id="path26" /></g><g
       id="g28"
       transform="translate(172.8755,206.1797)"><path
         d="m 0,0 -20.585,11.959 -17.9,-10.271 -0.12,-44.42 38.552,22.116 z"
         style="fill:#f79b4a;fill-opacity:1;fill-rule:nonzero;stroke:none"
         id="path30" /></g><g
       id="g32"
       transform="translate(172.9399,229.9849)"><path
         d="M 0,0 -0.064,-23.805 17.759,-34.161 56.426,-12.03 17.899,10.272 Z"
         style="fill:#f79b4a;fill-opacity:1;fill-rule:nonzero;stroke:none"
         id="path34" /></g><g
       id="g36"
       transform="translate(172.8755,206.1797)"><path
         d="M 0,0 0.064,23.805 -20.585,11.959 Z"
         style="fill:#ef8318;fill-opacity:1;fill-rule:nonzero;stroke:none"
         id="path38" /></g><g
       id="g40"
       transform="translate(165.813,159.8872)"><path
         d="M 0,0 50.477,28.958 50.632,87.154 0.314,116.386 -50.162,87.426 -50.319,29.23 Z M 54.806,26.446 -0.015,-5.007 -54.662,26.74 l 0.169,63.201 54.821,31.454 54.648,-31.75 z"
         style="fill:#ffffff;fill-opacity:1;fill-rule:nonzero;stroke:none"
         id="path42" /></g><g
       id="g44"
       transform="translate(484.9277,289.8345)"><path
         d="M 0,0 -38.4,-95.958 -76.481,0 h -7.732 l 40.971,-104.821 h 8.422 L 8.061,0 Z"
         style="fill:#ef8318;fill-opacity:1;fill-rule:nonzero;stroke:none"
         id="path46" /></g><g
       id="g48"><g
         id="g50"
         clip-path="url(#clipPath54)"><g
           id="g56"
           transform="translate(497.0137,245.8481)"><path
             d="m 0,0 c 1.803,12.241 6.82,22.139 14.92,29.416 8.141,7.298 18.18,11.001 29.832,11.001 12.447,0 22.74,-3.453 30.592,-10.264 C 83.127,23.41 88.525,13.34 91.385,0.224 l 0.908,-4.185 H -0.578 Z m 45.863,-57.172 c -12.711,0 -23.486,4.103 -32.031,12.2 -8.533,8.075 -13.33,18.75 -14.264,31.727 l -0.275,3.698 H 100.371 C 99.932,6.895 94.902,20.472 85.416,30.814 75.555,41.568 62.59,47.021 46.883,47.021 30.779,47.021 17.406,41.763 7.133,31.389 -3.154,21.012 -8.369,7.648 -8.369,-8.333 c 0,-15.243 5.346,-28.473 15.889,-39.324 10.503,-10.835 23.541,-16.325 38.753,-16.325 11.469,0 21.678,3.125 30.34,9.291 7.496,5.321 13.655,12.786 18.321,22.203 h -8.745 c -3.845,-7.37 -9.162,-13.292 -15.806,-17.606 -7.219,-4.698 -15.471,-7.078 -24.52,-7.078"
             style="fill:#ef8318;fill-opacity:1;fill-rule:nonzero;stroke:none"
             id="path58" /></g><g
           id="g60"
           transform="translate(320.7568,292.0552)"><path
             d="m 0,0 c -6.665,0 -12.735,-1.196 -18.043,-3.56 -5.274,-2.34 -9.851,-5.872 -13.604,-10.497 l -6.13,-7.531 v 55.515 h -7.212 v -140.969 h 7.212 v 50.89 c 0,9.958 0.367,16.819 1.125,20.98 0.78,4.277 2.164,8.151 4.11,11.513 3.174,5.43 7.548,9.649 13,12.542 5.373,2.856 11.675,4.306 18.728,4.306 12.522,0 21.673,-3.644 27.204,-10.83 5.41,-7.021 8.039,-18.756 8.039,-35.879 v -53.522 h 7.216 v 53.323 c 0,19.261 -3.368,33.246 -10.013,41.566 C 25.178,-4.087 14.535,0 0,0"
             style="fill:#ef8318;fill-opacity:1;fill-rule:nonzero;stroke:none"
             id="path62" /></g><path
           d="m 381.197,185.023 h 7.419 v 104.812 h -7.419 z"
           style="fill:#ef8318;fill-opacity:1;fill-rule:nonzero;stroke:none"
           id="path64" /><g
           id="g66"
           transform="translate(297.0996,117.9404)"><path
             d="M 0,0 H -4.393 L -18.51,36.874 h 5.077 L -3.242,8.786 c 0.624,-1.705 1.021,-3.206 1.19,-4.501 h 0.143 c 0.288,1.728 0.66,3.182 1.117,4.357 L 9.759,36.874 h 4.932 z"
             style="fill:#bcc0c3;fill-opacity:1;fill-rule:nonzero;stroke:none"
             id="path68" /></g><g
           id="g70"
           transform="translate(349.3413,139.583)"><path
             d="m 0,0 c -0.07,3.839 -0.983,6.815 -2.735,8.929 -1.754,2.112 -4.19,3.168 -7.31,3.168 -1.562,0 -3.008,-0.276 -4.341,-0.827 -1.332,-0.552 -2.503,-1.35 -3.51,-2.394 C -18.904,7.83 -19.74,6.558 -20.399,5.059 -21.059,3.558 -21.521,1.872 -21.785,0 Z m -21.894,-4.035 c 0.024,-2.256 0.325,-4.284 0.902,-6.085 0.575,-1.8 1.403,-3.325 2.482,-4.572 1.082,-1.248 2.396,-2.204 3.945,-2.864 1.547,-0.659 3.295,-0.99 5.239,-0.99 4.153,0 8.079,1.452 11.775,4.358 v -4.538 c -3.53,-2.52 -7.803,-3.782 -12.819,-3.782 -2.473,0 -4.717,0.434 -6.734,1.297 -2.016,0.865 -3.733,2.119 -5.149,3.764 -1.417,1.644 -2.508,3.666 -3.277,6.066 -0.767,2.402 -1.153,5.139 -1.153,8.211 0,2.76 0.421,5.317 1.26,7.671 0.842,2.352 2.006,4.386 3.494,6.103 1.488,1.717 3.253,3.061 5.293,4.033 2.039,0.971 4.272,1.457 6.698,1.457 2.377,0 4.476,-0.413 6.301,-1.241 1.824,-0.828 3.356,-2.011 4.592,-3.547 C 2.19,9.77 3.134,7.896 3.78,5.687 4.429,3.48 4.753,1.006 4.753,-1.73 v -2.305 z"
             style="fill:#bcc0c3;fill-opacity:1;fill-rule:nonzero;stroke:none"
             id="path72" /></g><g
           id="g74"
           transform="translate(395.3901,117.9404)"><path
             d="m 0,0 v 21.245 c 0,8.331 -3.024,12.494 -9.074,12.494 -1.608,0 -3.096,-0.317 -4.466,-0.952 -1.368,-0.636 -2.549,-1.518 -3.547,-2.646 -0.996,-1.13 -1.776,-2.468 -2.34,-4.017 -0.565,-1.548 -0.847,-3.222 -0.847,-5.021 V 0 h -4.608 v 36.874 h 4.608 v -6.409 h 0.146 c 2.735,4.846 6.853,7.271 12.35,7.271 4.033,0 7.107,-1.305 9.219,-3.924 2.113,-2.615 3.168,-6.397 3.168,-11.341 L 4.609,0 Z"
             style="fill:#bcc0c3;fill-opacity:1;fill-rule:nonzero;stroke:none"
             id="path76" /></g><g
           id="g78"
           transform="translate(434.3086,118.3721)"><path
             d="m 0,0 c -1.582,-0.791 -3.311,-1.187 -5.184,-1.187 -5.955,0 -8.931,3.433 -8.931,10.296 V 32.41 h -6.48 v 4.032 h 6.48 v 9.29 l 4.611,1.513 V 36.442 H 0 V 32.41 H -9.504 V 9.83 c 0,-2.496 0.406,-4.296 1.225,-5.401 0.814,-1.105 2.195,-1.658 4.14,-1.658 1.44,0 2.821,0.436 4.139,1.298 z"
             style="fill:#bcc0c3;fill-opacity:1;fill-rule:nonzero;stroke:none"
             id="path80" /></g><g
           id="g82"
           transform="translate(473.4102,117.9404)"><path
             d="m 0,0 v 6.266 h -0.145 c -2.498,-4.754 -6.375,-7.131 -11.63,-7.131 -8.764,0 -13.145,5.352 -13.145,16.06 v 21.679 h 4.609 V 16.06 c 0,-4.418 0.788,-7.682 2.36,-9.794 1.57,-2.113 3.978,-3.169 7.219,-3.169 1.584,0 3.031,0.305 4.339,0.918 1.309,0.612 2.436,1.477 3.385,2.592 0.947,1.118 1.686,2.455 2.215,4.015 C -0.266,12.184 0,13.912 0,15.808 V 36.874 H 4.607 V 0 Z"
             style="fill:#bcc0c3;fill-opacity:1;fill-rule:nonzero;stroke:none"
             id="path84" /></g><g
           id="g86"
           transform="translate(515.5703,150.0981)"><path
             d="m 0,0 c -1.082,0.791 -2.475,1.186 -4.18,1.186 -1.222,0 -2.302,-0.233 -3.24,-0.701 -0.934,-0.469 -1.758,-1.099 -2.467,-1.89 -0.707,-0.793 -1.308,-1.711 -1.799,-2.755 -0.494,-1.044 -0.888,-2.132 -1.189,-3.259 -0.301,-1.128 -0.516,-2.268 -0.646,-3.423 -0.133,-1.15 -0.2,-2.242 -0.2,-3.275 v -18.041 h -4.574 V 4.716 h 4.574 V -3.17 h 0.143 c 0.433,1.344 0.98,2.55 1.64,3.618 0.659,1.069 1.422,1.97 2.288,2.701 0.863,0.731 1.804,1.29 2.826,1.675 1.019,0.384 2.094,0.576 3.222,0.576 0.745,0 1.411,-0.048 1.998,-0.144 C -1.016,5.161 -0.482,5.015 0,4.824 Z"
             style="fill:#bcc0c3;fill-opacity:1;fill-rule:nonzero;stroke:none"
             id="path88" /></g><g
           id="g90"
           transform="translate(552.7598,139.583)"><path
             d="m 0,0 c -0.072,3.839 -0.984,6.815 -2.736,8.929 -1.754,2.112 -4.19,3.168 -7.311,3.168 -1.558,0 -3.006,-0.276 -4.34,-0.827 -1.332,-0.552 -2.502,-1.35 -3.508,-2.394 C -18.906,7.83 -19.74,6.558 -20.4,5.059 -21.061,3.558 -21.523,1.872 -21.785,0 Z m -21.895,-4.035 c 0.026,-2.256 0.325,-4.284 0.903,-6.085 0.574,-1.8 1.404,-3.325 2.482,-4.572 1.082,-1.248 2.397,-2.204 3.946,-2.864 1.546,-0.659 3.293,-0.99 5.236,-0.99 4.154,0 8.08,1.452 11.775,4.358 v -4.538 c -3.527,-2.52 -7.801,-3.782 -12.818,-3.782 -2.473,0 -4.717,0.434 -6.733,1.297 -2.019,0.865 -3.734,2.119 -5.15,3.764 -1.418,1.644 -2.508,3.666 -3.277,6.066 -0.768,2.402 -1.151,5.139 -1.151,8.211 0,2.76 0.418,5.317 1.26,7.671 0.838,2.352 2.002,4.386 3.492,6.103 1.489,1.717 3.252,3.061 5.291,4.033 2.043,0.971 4.276,1.457 6.701,1.457 2.377,0 4.475,-0.413 6.301,-1.241 1.825,-0.828 3.356,-2.011 4.592,-3.547 C 2.191,9.77 3.133,7.896 3.783,5.687 4.43,3.48 4.752,1.006 4.752,-1.73 v -2.305 z"
             style="fill:#bcc0c3;fill-opacity:1;fill-rule:nonzero;stroke:none"
             id="path92" /></g><g
           id="g94"
           transform="translate(571.8379,124.5664)"><path
             d="m 0,0 c 0.693,-0.554 1.449,-1.046 2.268,-1.478 0.816,-0.43 1.656,-0.803 2.519,-1.115 0.865,-0.312 1.734,-0.548 2.611,-0.703 0.877,-0.156 1.711,-0.233 2.504,-0.233 5.473,0 8.209,2.051 8.209,6.157 0,0.936 -0.193,1.746 -0.576,2.431 C 17.15,5.742 16.6,6.367 15.879,6.933 15.158,7.496 14.295,8.017 13.285,8.498 12.279,8.979 11.137,9.482 9.867,10.01 8.16,10.706 6.695,11.415 5.473,12.136 4.248,12.855 3.238,13.64 2.447,14.493 1.654,15.345 1.066,16.282 0.684,17.304 0.299,18.321 0.107,19.48 0.107,20.777 c 0,1.633 0.354,3.084 1.061,4.359 0.711,1.27 1.664,2.35 2.863,3.239 1.201,0.888 2.588,1.565 4.158,2.035 1.575,0.467 3.225,0.7 4.954,0.7 3.191,0 5.978,-0.599 8.353,-1.798 V 24.45 c -2.76,1.777 -5.738,2.663 -8.93,2.663 -1.152,0 -2.203,-0.142 -3.15,-0.431 C 8.467,26.394 7.656,25.985 6.984,25.458 6.312,24.93 5.789,24.3 5.418,23.567 5.045,22.836 4.859,22.025 4.859,21.137 c 0,-0.913 0.145,-1.711 0.432,-2.394 0.289,-0.684 0.74,-1.304 1.352,-1.854 0.613,-0.554 1.404,-1.08 2.377,-1.586 0.972,-0.502 2.154,-1.044 3.546,-1.62 1.778,-0.721 3.313,-1.434 4.61,-2.142 1.295,-0.709 2.365,-1.478 3.203,-2.304 0.84,-0.83 1.465,-1.754 1.873,-2.773 0.408,-1.022 0.613,-2.202 0.613,-3.549 0,-1.656 -0.342,-3.131 -1.027,-4.428 C 21.154,-2.81 20.207,-3.902 18.994,-4.79 17.781,-5.679 16.357,-6.35 14.727,-6.807 13.094,-7.263 11.316,-7.491 9.396,-7.491 5.676,-7.491 2.543,-6.709 0,-5.15 Z"
             style="fill:#bcc0c3;fill-opacity:1;fill-rule:nonzero;stroke:none"
             id="path96" /></g></g></g></g></svg>
